<svg width="41" height="41" viewBox="0 0 41 41" fill="none" xmlns="http://www.w3.org/2000/svg">
<path fill-rule="evenodd" clip-rule="evenodd" d="M1.60604 34.5003C0.242871 35.8708 0.248814 38.0868 1.61931 39.45C2.9898 40.8132 5.20587 40.8072 6.56904 39.4367L20.3206 25.6112L34.5007 39.7154C35.8712 41.0786 38.0872 41.0726 39.4504 39.7021C40.8135 38.3316 40.8076 36.1156 39.4371 34.7524L25.2571 20.6482L39.3612 6.46822C40.7244 5.09773 40.7184 2.88166 39.3479 1.51849C37.9774 0.155328 35.7614 0.161272 34.3982 1.53177L20.2941 15.7117L6.46859 1.96022C5.0981 0.597052 2.88203 0.602993 1.51886 1.97349C0.155698 3.34398 0.161642 5.56005 1.53214 6.92322L15.3576 20.6748L1.60604 34.5003Z" fill="#047582"/>
</svg>
