<svg width="54" height="43" viewBox="0 0 54 43" fill="none" xmlns="http://www.w3.org/2000/svg">
<path fill-rule="evenodd" clip-rule="evenodd" d="M0.5 4C0.5 2.067 2.067 0.5 4 0.5H50.5C52.433 0.5 54 2.067 54 4C54 5.933 52.433 7.5 50.5 7.5H4C2.067 7.5 0.5 5.933 0.5 4ZM0.5 21C0.5 19.067 2.067 17.5 4 17.5H50.5C52.433 17.5 54 19.067 54 21C54 22.933 52.433 24.5 50.5 24.5H4C2.067 24.5 0.5 22.933 0.5 21ZM4 35.5C2.067 35.5 0.5 37.067 0.5 39C0.5 40.933 2.067 42.5 4 42.5H50.5C52.433 42.5 54 40.933 54 39C54 37.067 52.433 35.5 50.5 35.5H4Z" fill="#047582"/>
</svg>
